<mxGraphModel dx="1434" dy="794" grid="1" gridSize="10" guides="1" tooltips="1" connect="1" arrows="1" fold="1" page="1" pageScale="1" pageWidth="850" pageHeight="1100" math="0" shadow="0">
  <root>
    <mxCell id="0" />
    <mxCell id="1" parent="0" />
    <mxCell id="X6gJ9o-s_mFzJ3wF9h-o-1" value="On-Premise Technology" style="rounded=1;whiteSpace=wrap;html=1;fillColor=#dae8fc;strokeColor=#6c8ebf;" vertex="1" parent="1">
      <mxGeometry x="300" y="40" width="250" height="60" as="geometry" />
    </mxCell>
    <mxCell id="X6gJ9o-s_mFzJ3wF9h-o-2" value="" style="endArrow=classic;html=1;rounded=0;exitX=0.5;exitY=1;exitDx=0;exitDy=0;" edge="1" parent="1" source="X6gJ9o-s_mFzJ3wF9h-o-1" target="X6gJ9o-s_mFzJ3wF9h-o-5">
      <mxGeometry width="50" height="50" relative="1" as="geometry">
        <mxPoint x="400" y="310" as="sourcePoint" />
        <mxPoint x="450" y="260" as="targetPoint" />
      </mxGeometry>
    </mxCell>
    <mxCell id="X6gJ9o-s_mFzJ3wF9h-o-3" value="" style="endArrow=classic;html=1;rounded=0;exitX=0;exitY=0.5;exitDx=0;exitDy=0;" edge="1" parent="1" source="X6gJ9o-s_mFzJ3wF9h-o-1" target="X6gJ9o-s_mFzJ3wF9h-o-6">
      <mxGeometry width="50" height="50" relative="1" as="geometry">
        <mxPoint x="400" y="310" as="sourcePoint" />
        <mxPoint x="150" y="270" as="targetPoint" />
      </mxGeometry>
    </mxCell>
    <mxCell id="X6gJ9o-s_mFzJ3wF9h-o-4" value="" style="endArrow=classic;html=1;rounded=0;exitX=1;exitY=0.5;exitDx=0;exitDy=0;" edge="1" parent="1" source="X6gJ9o-s_mFzJ3wF9h-o-1" target="X6gJ9o-s_mFzJ3wF9h-o-7">
      <mxGeometry width="50" height="50" relative="1" as="geometry">
        <mxPoint x="400" y="310" as="sourcePoint" />
        <mxPoint x="690" y="270" as="targetPoint" />
      </mxGeometry>
    </mxCell>
    <mxCell id="X6gJ9o-s_mFzJ3wF9h-o-5" value="&lt;b&gt;Pattern: RePlatform&lt;/b&gt;" style="rounded=1;whiteSpace=wrap;html=1;fillColor=#d5e8d4;strokeColor=#82b366;" vertex="1" parent="1">
      <mxGeometry x="60" y="160" width="180" height="60" as="geometry" />
    </mxCell>
    <mxCell id="X6gJ9o-s_mFzJ3wF9h-o-6" value="&lt;b&gt;Pattern: ReHost&lt;/b&gt;&lt;div&gt;(Lift &amp;amp; Shift)&lt;/div&gt;" style="rounded=1;whiteSpace=wrap;html=1;fillColor=#e1d5e7;strokeColor=#9673a6;" vertex="1" parent="1">
      <mxGeometry x="330" y="160" width="180" height="60" as="geometry" />
    </mxCell>
    <mxCell id="X6gJ9o-s_mFzJ3wF9h-o-7" value="&lt;b&gt;Pattern: Unsupported&lt;/b&gt;" style="rounded=1;whiteSpace=wrap;html=1;fillColor=#f8cecc;strokeColor=#b85450;" vertex="1" parent="1">
      <mxGeometry x="610" y="160" width="180" height="60" as="geometry" />
    </mxCell>
    <mxCell id="X6gJ9o-s_mFzJ3wF9h-o-8" value="" style="endArrow=classic;html=1;rounded=0;exitX=0.5;exitY=1;exitDx=0;exitDy=0;entryX=0.5;entryY=0;entryDx=0;entryDy=0;" edge="1" parent="1" source="X6gJ9o-s_mFzJ3wF9h-o-5" target="X6gJ9o-s_mFzJ3wF9h-o-11">
      <mxGeometry width="50" height="50" relative="1" as="geometry">
        <mxPoint x="160" y="310" as="sourcePoint" />
        <mxPoint x="150" y="290" as="targetPoint" />
      </mxGeometry>
    </mxCell>
    <mxCell id="X6gJ9o-s_mFzJ3wF9h-o-9" value="" style="endArrow=classic;html=1;rounded=0;exitX=0.5;exitY=1;exitDx=0;exitDy=0;entryX=0.5;entryY=0;entryDx=0;entryDy=0;" edge="1" parent="1" source="X6gJ9o-s_mFzJ3wF9h-o-6" target="X6gJ9o-s_mFzJ3wF9h-o-12">
      <mxGeometry width="50" height="50" relative="1" as="geometry">
        <mxPoint x="430" y="310" as="sourcePoint" />
        <mxPoint x="420" y="290" as="targetPoint" />
      </mxGeometry>
    </mxCell>
    <mxCell id="X6gJ9o-s_mFzJ3wF9h-o-10" value="" style="endArrow=classic;html=1;rounded=0;exitX=0.5;exitY=1;exitDx=0;exitDy=0;entryX=0.5;entryY=0;entryDx=0;entryDy=0;" edge="1" parent="1" source="X6gJ9o-s_mFzJ3wF9h-o-7" target="X6gJ9o-s_mFzJ3wF9h-o-13">
      <mxGeometry width="50" height="50" relative="1" as="geometry">
        <mxPoint x="710" y="310" as="sourcePoint" />
        <mxPoint x="700" y="290" as="targetPoint" />
      </mxGeometry>
    </mxCell>
    <mxCell id="X6gJ9o-s_mFzJ3wF9h-o-11" value="&lt;b&gt;Who:&lt;/b&gt;&lt;div&gt;Modern Databases&lt;/div&gt;&lt;div&gt;&lt;font style=&quot;font-size: 10px;&quot;&gt;(MySQL 5.7+, Oracle 19, PG 11+, SQL Server 2016+)&lt;/font&gt;&lt;/div&gt;" style="text;html=1;align=center;verticalAlign=middle;resizable=0;points=[];autosize=1;strokeColor=none;fillColor=none;" vertex="1" parent="1">
      <mxGeometry x="30" y="250" width="240" height="60" as="geometry" />
    </mxCell>
    <mxCell id="X6gJ9o-s_mFzJ3wF9h-o-12" value="&lt;b&gt;Who:&lt;/b&gt;&lt;div&gt;Older Databases &amp;amp; Supported OS&lt;/div&gt;&lt;div&gt;&lt;font style=&quot;font-size: 10px;&quot;&gt;(MySQL 5.6-, Oracle 11/12, Windows, RHEL 6+)&lt;/font&gt;&lt;/div&gt;" style="text;html=1;align=center;verticalAlign=middle;resizable=0;points=[];autosize=1;strokeColor=none;fillColor=none;" vertex="1" parent="1">
      <mxGeometry x="294" y="250" width="252" height="60" as="geometry" />
    </mxCell>
    <mxCell id="X6gJ9o-s_mFzJ3wF9h-o-13" value="&lt;b&gt;Who:&lt;/b&gt;&lt;div&gt;Legacy DB &amp;amp; OS&lt;/div&gt;&lt;div&gt;&lt;font style=&quot;font-size: 10px;&quot;&gt;(Oracle 8-10, RHEL 5.x, AIX, etc.)&lt;/font&gt;&lt;/div&gt;" style="text;html=1;align=center;verticalAlign=middle;resizable=0;points=[];autosize=1;strokeColor=none;fillColor=none;" vertex="1" parent="1">
      <mxGeometry x="589.5" y="250" width="201" height="60" as="geometry" />
    </mxCell>
    <mxCell id="X6gJ9o-s_mFzJ3wF9h-o-14" value="" style="endArrow=classic;html=1;rounded=0;entryX=0.5;entryY=0;entryDx=0;entryDy=0;" edge="1" parent="1" target="X6gJ9o-s_mFzJ3wF9h-o-17">
      <mxGeometry width="50" height="50" relative="1" as="geometry">
        <mxPoint x="150" y="320" as="sourcePoint" />
        <mxPoint x="150" y="370" as="targetPoint" />
      </mxGeometry>
    </mxCell>
    <mxCell id="X6gJ9o-s_mFzJ3wF9h-o-15" value="" style="endArrow=classic;html=1;rounded=0;entryX=0.5;entryY=0;entryDx=0;entryDy=0;" edge="1" parent="1">
      <mxGeometry width="50" height="50" relative="1" as="geometry">
        <mxPoint x="420" y="320" as="sourcePoint" />
        <mxPoint x="420" y="370" as="targetPoint" />
      </mxGeometry>
    </mxCell>
    <mxCell id="X6gJ9o-s_mFzJ3wF9h-o-16" value="" style="endArrow=classic;html=1;rounded=0;entryX=0.5;entryY=0;entryDx=0;entryDy=0;" edge="1" parent="1">
      <mxGeometry width="50" height="50" relative="1" as="geometry">
        <mxPoint x="700" y="320" as="sourcePoint" />
        <mxPoint x="700" y="370" as="targetPoint" />
      </mxGeometry>
    </mxCell>
    <mxCell id="X6gJ9o-s_mFzJ3wF9h-o-17" value="&lt;b&gt;Target: RDS&lt;/b&gt;&lt;div&gt;(Managed Service)&lt;/div&gt;" style="shape=cylinder3;whiteSpace=wrap;html=1;boundedLbl=1;backgroundOutline=1;size=15;fillColor=#d5e8d4;strokeColor=#82b366;" vertex="1" parent="1">
      <mxGeometry x="85" y="370" width="130" height="70" as="geometry" />
    </mxCell>
    <mxCell id="X6gJ9o-s_mFzJ3wF9h-o-18" value="&lt;b&gt;Target: EC2&lt;/b&gt;&lt;div&gt;(Virtual Machine)&lt;/div&gt;" style="shape=cylinder3;whiteSpace=wrap;html=1;boundedLbl=1;backgroundOutline=1;size=15;fillColor=#e1d5e7;strokeColor=#9673a6;" vertex="1" parent="1">
      <mxGeometry x="355" y="370" width="130" height="70" as="geometry" />
    </mxCell>
    <mxCell id="X6gJ9o-s_mFzJ3wF9h-o-19" value="&lt;b&gt;Target: N/A&lt;/b&gt;&lt;div&gt;(Requires Modernization)&lt;br&gt;&lt;/div&gt;" style="shape=cylinder3;whiteSpace=wrap;html=1;boundedLbl=1;backgroundOutline=1;size=15;fillColor=#f8cecc;strokeColor=#b85450;" vertex="1" parent="1">
      <mxGeometry x="635" y="370" width="130" height="70" as="geometry" />
    </mxCell>
  </root>
</mxGraphModel>
